<svg width="465" height="339" xmlns="http://www.w3.org/2000/svg" xmlns:xlink="http://www.w3.org/1999/xlink"><defs><path id="a" d="M0 0h243.526v308.94H0z"/><path id="c" d="M0 0h79.966v79.875H0z"/></defs><g fill="none" fill-rule="evenodd"><g transform="translate(85.184)"><mask id="b" fill="#fff"><use xlink:href="#a"/></mask><path d="M2.476 28.12 201.714.029a2.878 2.878 0 0 1 3.248 2.457l38.536 275.074a2.889 2.889 0 0 1-2.45 3.262L41.812 308.912a2.878 2.878 0 0 1-3.249-2.457L.028 31.38a2.885 2.885 0 0 1 2.448-3.26" fill="#FFF" mask="url(#b)"/></g><path d="m125.435 63.822 134.96-19.03a1.268 1.268 0 0 1 .354 2.514l-134.962 19.03a1.265 1.265 0 0 1-1.43-1.08 1.268 1.268 0 0 1 1.078-1.434M126.61 72.203l134.96-19.029a1.266 1.266 0 0 1 1.428 1.082 1.267 1.267 0 0 1-1.076 1.432l-134.96 19.03a1.27 1.27 0 0 1-.352-2.514M127.783 80.586l134.96-19.03a1.268 1.268 0 0 1 .354 2.514L128.135 83.1a1.265 1.265 0 0 1-1.429-1.08 1.268 1.268 0 0 1 1.077-1.434M128.958 88.967l134.96-19.03a1.266 1.266 0 0 1 1.429 1.083 1.269 1.269 0 0 1-1.077 1.433L129.31 91.481a1.27 1.27 0 0 1-.352-2.514M130.131 97.35l134.96-19.03a1.266 1.266 0 0 1 1.43 1.08c.099.695-.385 1.337-1.076 1.434l-134.962 19.03a1.265 1.265 0 0 1-1.429-1.081 1.268 1.268 0 0 1 1.077-1.434M131.306 105.73l134.96-19.029a1.267 1.267 0 0 1 1.43 1.082 1.268 1.268 0 0 1-1.078 1.434l-134.961 19.028a1.27 1.27 0 0 1-.35-2.514M132.48 114.113l39.661-5.593a1.27 1.27 0 0 1 .352 2.515l-39.661 5.592a1.264 1.264 0 0 1-1.43-1.08 1.268 1.268 0 0 1 1.078-1.434M134.828 130.877l134.96-19.03a1.267 1.267 0 0 1 1.43 1.081 1.267 1.267 0 0 1-1.076 1.434L135.18 133.39a1.265 1.265 0 0 1-1.429-1.08 1.267 1.267 0 0 1 1.077-1.434M136.003 139.258l134.96-19.03a1.266 1.266 0 0 1 1.429 1.082 1.268 1.268 0 0 1-1.077 1.434l-134.961 19.028a1.27 1.27 0 0 1-.35-2.514M137.177 147.64l134.96-19.03a1.266 1.266 0 0 1 1.429 1.08 1.269 1.269 0 0 1-1.076 1.436L137.53 150.154a1.27 1.27 0 0 1-.352-2.514M138.351 156.022l98.696-13.917a1.267 1.267 0 0 1 1.43 1.082 1.268 1.268 0 0 1-1.078 1.434l-98.697 13.915a1.266 1.266 0 0 1-1.429-1.08 1.268 1.268 0 0 1 1.078-1.434M140.698 172.785l134.96-19.03a1.266 1.266 0 0 1 1.43 1.082 1.268 1.268 0 0 1-1.076 1.434L141.05 175.299a1.27 1.27 0 0 1-.352-2.514M141.873 181.167l134.96-19.03a1.266 1.266 0 0 1 1.43 1.081 1.268 1.268 0 0 1-1.076 1.435l-134.962 19.028a1.27 1.27 0 0 1-.352-2.514M143.047 189.55l134.96-19.03a1.27 1.27 0 0 1 .354 2.515l-134.962 19.028a1.265 1.265 0 0 1-1.43-1.08 1.268 1.268 0 0 1 1.078-1.434M144.222 197.931l39.66-5.592a1.27 1.27 0 0 1 .352 2.515l-39.66 5.591a1.27 1.27 0 0 1-.352-2.514" fill="#D8D8D8"/><path d="M35.585 36.619a6.078 6.078 0 0 0 .152 8.59 6.072 6.072 0 0 0 8.587-.15 6.08 6.08 0 0 0-.152-8.59 6.07 6.07 0 0 0-8.587.15Zm-3.017-7.544a13.876 13.876 0 0 1 3.384-1.471l.698-3.352 5.659-.1.815 3.325c1.186.293 2.343.743 3.435 1.353l2.86-1.878 4.073 3.935-1.772 2.926a13.898 13.898 0 0 1 1.47 3.387l3.35.697.099 5.663-3.322.815a13.9 13.9 0 0 1-1.352 3.435l1.874 2.864-3.93 4.074-2.925-1.775a13.854 13.854 0 0 1-3.386 1.472l-.697 3.351-5.661.1-.815-3.325a13.793 13.793 0 0 1-3.433-1.352l-2.861 1.876-4.073-3.933 1.772-2.927a13.97 13.97 0 0 1-1.47-3.385l-3.35-.7-.098-5.661 3.323-.816a13.893 13.893 0 0 1 1.35-3.436l-1.875-2.86 3.933-4.075 2.925 1.773Z" fill="#FF6A58"/><path d="M35.585 36.619s.318-.448 1.131-.993a6.04 6.04 0 0 1 3.962-.937 6.136 6.136 0 0 1 2.693.957c.858.574 1.67 1.394 2.176 2.454.268.523.454 1.101.554 1.707.11.602.123 1.237.034 1.87-.155 1.269-.754 2.52-1.686 3.503-.949.967-2.177 1.611-3.441 1.809a5.849 5.849 0 0 1-1.87.033 5.899 5.899 0 0 1-1.724-.493c-1.077-.47-1.923-1.252-2.528-2.091a6.133 6.133 0 0 1-1.051-2.659 6.056 6.056 0 0 1 .797-3.994c.516-.833.953-1.166.953-1.166.033.028-.366.4-.836 1.233a6.072 6.072 0 0 0-.67 3.889c.14.831.456 1.727 1.042 2.528.587.793 1.4 1.53 2.424 1.966.505.233 1.06.385 1.637.456.575.08 1.176.072 1.768-.038 1.195-.192 2.35-.802 3.249-1.716.88-.93 1.448-2.106 1.597-3.307a5.55 5.55 0 0 0-.022-1.768 5.562 5.562 0 0 0-.513-1.62c-.473-1.01-1.238-1.796-2.05-2.355a5.94 5.94 0 0 0-2.563-.954 6.054 6.054 0 0 0-3.86.808c-.818.498-1.173.91-1.203.878" fill="#FF6A58"/><path d="M32.567 29.075c0 .005-.063-.028-.188-.1-.139-.08-.323-.185-.561-.324-.513-.302-1.249-.737-2.204-1.303l.069-.009c-1 1.05-2.317 2.43-3.908 4.097l.009-.108 1.887 2.854.033.05-.029.056a13.849 13.849 0 0 0-1.33 3.413l-.015.066-.069.017-3.322.825.096-.122c.035 1.783.072 3.675.113 5.662l-.109-.132 3.35.692.085.017.025.084a13.82 13.82 0 0 0 1.46 3.348l.048.078-.048.079-1.768 2.927-.026-.193c1.281 1.236 2.663 2.566 4.08 3.93l-.202-.02 2.859-1.878.082-.055.089.049a13.792 13.792 0 0 0 3.393 1.333l.098.024.026.1c.255 1.04.533 2.176.816 3.324l-.168-.13c1.792-.034 3.713-.068 5.66-.102l-.166.137.696-3.352.021-.102.103-.029a13.833 13.833 0 0 0 3.34-1.452v-.001l.091-.055.091.055L50 54.6l-.217.026 3.934-4.073-.02.215c-.63-.964-1.255-1.92-1.874-2.864l-.057-.086.05-.09a13.7 13.7 0 0 0 1.338-3.393l.024-.1.1-.023 3.323-.814-.127.165-.092-5.663.126.155-3.348-.703-.094-.019-.024-.09c-.34-1.201-.835-2.329-1.451-3.352l-.046-.078.046-.078 1.778-2.924.024.18-4.065-3.942.166.015-2.865 1.87-.064.042-.065-.037a13.85 13.85 0 0 0-3.402-1.351l-.067-.017-.017-.067c-.291-1.209-.556-2.298-.804-3.326l.102.078-5.66.074.075-.063-.72 3.348-.005.034-.033.009a14.456 14.456 0 0 0-2.589.995c-.261.138-.462.242-.608.32a1.543 1.543 0 0 1-.204.102c0-.004.064-.049.19-.128.129-.08.325-.199.596-.345a13.42 13.42 0 0 1 2.584-1.051l-.04.041.675-3.356.013-.06.063-.002c1.598-.034 3.467-.076 5.66-.124l.08-.003.022.08.826 3.322-.084-.083c1.139.278 2.304.711 3.467 1.354l-.13.004 2.857-1.882.09-.059.077.074 4.08 3.926.083.08-.06.1-1.767 2.928v-.156a14.111 14.111 0 0 1 1.491 3.423l-.117-.11 3.35.693.126.025v.13c.036 1.841.07 3.729.107 5.661l.002.133-.128.03-3.325.819.123-.123a13.965 13.965 0 0 1-1.363 3.478l-.006-.177 1.875 2.862.076.114-.095.1a9172.337 9172.337 0 0 0-3.932 4.076l-.096.1-.118-.073-2.926-1.773h.18l-.003.002a14.103 14.103 0 0 1-3.425 1.488l.122-.132-.697 3.351-.028.136-.139.001-5.66.098-.136.002-.033-.133-.811-3.324.121.123a14.09 14.09 0 0 1-3.473-1.371l.17-.006-2.861 1.874-.109.07-.092-.09-4.068-3.939-.09-.086.064-.107c.619-1.017 1.226-2.016 1.779-2.922v.155a14.016 14.016 0 0 1-1.483-3.424l.11.1-3.348-.703-.109-.024-.001-.108-.087-5.664-.001-.098.096-.024 3.327-.806-.085.083c.32-1.277.801-2.438 1.374-3.457l.003.106c-.67-1.034-1.298-2-1.863-2.87l-.039-.06.05-.05 3.954-4.052.032-.031.037.022 2.154 1.342.555.352c.124.08.187.124.187.128" fill="#FF6A58"/><path d="M33.537 97.526c-6.826 3.834-9.254 12.478-5.421 19.308 3.832 6.828 12.473 9.256 19.298 5.422 6.826-3.833 9.254-12.478 5.423-19.306-3.834-6.83-12.473-9.257-19.3-5.424Zm-1.689-18.89a32.345 32.345 0 0 1 8.553-1.018l3.807-7.025 12.72 3.576-.408 7.98a32.38 32.38 0 0 1 6.773 5.326l7.652-2.275 6.468 11.527-5.927 5.351a32.335 32.335 0 0 1 1.018 8.559l7.022 3.806-3.575 12.727-7.974-.41a32.353 32.353 0 0 1-5.324 6.775l2.272 7.659-11.522 6.47-5.347-5.929a32.292 32.292 0 0 1-8.554 1.018l-3.807 7.024-12.72-3.575.408-7.98a32.273 32.273 0 0 1-6.772-5.326l-7.651 2.276-6.469-11.528 5.924-5.35a32.45 32.45 0 0 1-1.017-8.559l-7.021-3.808 3.575-12.725 7.976.407a32.43 32.43 0 0 1 5.323-6.774l-2.272-7.655 11.52-6.471 5.35 5.928Z" fill="#FFB6AD"/><path d="M33.537 97.526s1.012-.788 3.193-1.46c2.141-.654 5.656-1.042 9.485.562 1.883.805 3.823 2.078 5.38 3.946 1.536 1.863 2.8 4.236 3.222 6.95.248 1.344.272 2.763.092 4.182a13.69 13.69 0 0 1-1.177 4.204c-1.196 2.734-3.374 5.13-6.118 6.7-2.77 1.527-5.947 2.141-8.904 1.738a13.618 13.618 0 0 1-4.202-1.184 13.634 13.634 0 0 1-3.522-2.257c-2.097-1.775-3.463-4.09-4.251-6.371-.784-2.303-.86-4.625-.567-6.65.626-4.106 2.788-6.905 4.46-8.393 1.71-1.514 2.91-1.967 2.91-1.967.054.084-1.086.646-2.693 2.196a14.148 14.148 0 0 0-4.107 8.246c-.247 1.949-.14 4.165.635 6.35.78 2.165 2.1 4.358 4.102 6.02.972.86 2.111 1.572 3.352 2.118 1.23.565 2.58.949 3.98 1.1 2.799.372 5.79-.215 8.409-1.654 2.59-1.487 4.651-3.738 5.79-6.32a12.952 12.952 0 0 0 1.132-3.972 12.906 12.906 0 0 0-.06-3.965c-.376-2.575-1.558-4.844-3-6.638-1.462-1.8-3.297-3.046-5.09-3.851a14.122 14.122 0 0 0-9.175-.786c-2.159.564-3.232 1.247-3.276 1.156" fill="#FFB6AD"/><g transform="translate(0 70.378)"><mask id="d" fill="#fff"><use xlink:href="#c"/></mask><path d="M31.849 8.26c-.003.01-.122-.108-.356-.35-.254-.271-.594-.633-1.036-1.101-.94-1.02-2.294-2.486-4.054-4.392l.16.027a42916.14 42916.14 0 0 0-11.484 6.537l.097-.238 2.303 7.646.041.138-.104.101a32.361 32.361 0 0 0-5.259 6.74l-.082.14-.16-.01c-2.488-.119-5.18-.25-7.978-.385l.293-.21L.685 35.637l-.154-.367c2.173 1.173 4.572 2.466 7.027 3.792l.178.096-.003.204a32.244 32.244 0 0 0 1.023 8.465l.054.205-.16.144c-1.833 1.662-3.855 3.493-5.916 5.358l.075-.446c2.034 3.62 4.23 7.52 6.48 11.519l-.437-.177c2.383-.71 4.999-1.49 7.65-2.282l.224-.067.162.168a32.142 32.142 0 0 0 6.695 5.257l.205.12-.013.239c-.125 2.5-.262 5.226-.402 7.98l-.29-.404c4.028 1.129 8.346 2.341 12.722 3.57l-.463.197c1.2-2.22 2.496-4.615 3.803-7.026l.116-.216.245.004a32.081 32.081 0 0 0 8.44-1.005l.008-.002.24-.06.164.18c1.795 1.993 3.58 3.97 5.347 5.929l-.5-.08 11.523-6.469-.189.465-2.269-7.657-.068-.23.172-.17a31.915 31.915 0 0 0 5.263-6.689l.121-.203.24.011c2.696.14 5.351.279 7.974.414l-.392.281 3.586-12.722.182.432c-2.38-1.296-4.718-2.567-7.016-3.816l-.194-.106.004-.221a32.16 32.16 0 0 0-.995-8.463l-.052-.209.156-.14c2.034-1.832 4.008-3.608 5.935-5.341l-.069.415c-2.266-4.059-4.407-7.89-6.444-11.54l.361.146c-2.694.794-5.22 1.538-7.659 2.255l-.17.05-.121-.126a32.215 32.215 0 0 0-6.7-5.298l-.139-.084.009-.16c.16-2.9.299-5.512.434-7.978l.174.243L44.158.39l.21-.088-3.85 7-.04.07H40.4a33.396 33.396 0 0 0-6.455.49l-1.573.303c-.36.076-.526.105-.523.094.003-.009.177-.065.508-.16.342-.091.861-.228 1.564-.37a31.286 31.286 0 0 1 6.484-.62l-.116.069c1.024-1.924 2.255-4.234 3.759-7.05L44.115 0l.142.04 12.736 3.52.184.05-.01.194-.38 7.98-.13-.243a32.626 32.626 0 0 1 6.844 5.352l-.291-.076 7.646-2.294.238-.07.123.218 6.49 11.512.133.235-.202.182c-1.92 1.742-3.886 3.523-5.917 5.361l.107-.348a32.794 32.794 0 0 1 1.041 8.65l-.19-.325 7.026 3.798.261.142-.08.289-3.561 12.73-.083.297-.31-.016c-2.621-.133-5.277-.265-7.976-.4l.359-.194a32.78 32.78 0 0 1-5.385 6.86l.106-.4c.75 2.527 1.51 5.08 2.275 7.654l.09.308-.277.16c-3.788 2.125-7.628 4.285-11.521 6.472l-.283.16-.217-.242c-1.77-1.959-3.554-3.937-5.35-5.926l.405.12-.01.002a32.79 32.79 0 0 1-8.652 1.03l.363-.214-3.808 7.025-.153.282-.311-.087-12.72-3.581-.306-.085.018-.318c.141-2.754.283-5.48.412-7.978l.193.357a32.83 32.83 0 0 1-6.849-5.396l.387.102-7.655 2.267-.291.086-.146-.265c-2.24-4.003-4.428-7.911-6.453-11.533l-.143-.253.215-.194 5.933-5.342-.104.347a32.815 32.815 0 0 1-1.015-8.649l.175.3-7.014-3.821L0 35.708l.07-.245 3.602-12.718.064-.223.23.012c2.8.152 5.49.296 7.974.43l-.242.133a32.689 32.689 0 0 1 5.387-6.81l-.063.239L14.78 8.86l-.046-.159.143-.079c4.707-2.61 8.599-4.765 11.558-6.404l.093-.052.067.077 3.918 4.444 1.001 1.159c.226.263.338.403.335.413" fill="#FFB6AD" mask="url(#d)"/></g><path d="M95.62 50.307c-4.371 2.455-5.925 7.989-3.472 12.362a9.074 9.074 0 0 0 12.357 3.472c4.37-2.454 5.924-7.99 3.47-12.362-2.453-4.372-7.986-5.926-12.355-3.472Zm-1.082-12.094a20.753 20.753 0 0 1 5.476-.652l2.438-4.498 8.144 2.29-.26 5.108a20.736 20.736 0 0 1 4.335 3.41l4.898-1.456 4.143 7.38-3.795 3.426c.467 1.81.68 3.654.652 5.48l4.496 2.437-2.288 8.148-5.108-.26a20.686 20.686 0 0 1-3.408 4.338l1.456 4.901-7.377 4.143-3.425-3.796c-1.81.467-3.652.678-5.478.651l-2.435 4.499-8.144-2.29.26-5.108a20.727 20.727 0 0 1-4.334-3.411l-4.901 1.456-4.14-7.38 3.793-3.426a20.781 20.781 0 0 1-.653-5.478l-4.495-2.439 2.289-8.147 5.106.26a20.786 20.786 0 0 1 3.408-4.336l-1.454-4.902 7.377-4.144 3.424 3.796Z" fill="#FFB6AD"/><path d="M95.62 50.307s.647-.504 2.044-.935c1.37-.418 3.622-.667 6.074.361 1.204.513 2.446 1.33 3.442 2.526.984 1.192 1.795 2.712 2.064 4.45.159.86.174 1.768.06 2.677a8.709 8.709 0 0 1-.756 2.693c-.763 1.75-2.159 3.283-3.915 4.288-1.774.978-3.808 1.37-5.701 1.113a8.757 8.757 0 0 1-2.69-.759 8.675 8.675 0 0 1-2.256-1.444c-1.342-1.135-2.217-2.62-2.722-4.08-.501-1.473-.55-2.96-.363-4.257.401-2.628 1.784-4.42 2.856-5.374 1.095-.969 1.863-1.259 1.863-1.259.035.054-.697.414-1.723 1.406a9.054 9.054 0 0 0-2.632 5.28c-.156 1.248-.088 2.667.41 4.067.497 1.385 1.343 2.789 2.624 3.854a8.274 8.274 0 0 0 2.147 1.354 8.258 8.258 0 0 0 2.548.706c1.792.238 3.707-.14 5.385-1.06 1.658-.952 2.977-2.392 3.707-4.047a8.253 8.253 0 0 0 .724-2.543 8.327 8.327 0 0 0-.039-2.538c-.24-1.649-.998-3.102-1.921-4.25-.935-1.152-2.11-1.95-3.26-2.465a9.045 9.045 0 0 0-5.873-.505c-1.383.362-2.068.8-2.097.741" fill="#FFB6AD"/><path d="M94.539 38.213c-.002.008-.08-.068-.228-.223l-.665-.707-2.594-2.81.102.017c-1.884 1.07-4.358 2.481-7.353 4.186l.061-.153 1.477 4.897.025.088-.065.065a20.727 20.727 0 0 0-3.368 4.313l-.052.089-.104-.005-5.108-.245.187-.135a19280.9 19280.9 0 0 1-2.269 8.152l-.098-.235c1.392.75 2.926 1.58 4.5 2.427l.114.063-.003.13a20.61 20.61 0 0 0 .656 5.42l.033.131-.1.092-3.789 3.432.046-.287 4.15 7.376-.28-.114c1.526-.455 3.2-.955 4.899-1.46l.143-.043.105.107a20.586 20.586 0 0 0 4.284 3.366l.132.076-.009.153c-.078 1.6-.168 3.346-.255 5.11l-.186-.259 8.144 2.287-.296.125c.769-1.421 1.598-2.955 2.436-4.499l.074-.138.158.003c1.73.027 3.592-.176 5.403-.643l.005-.001.153-.039.104.116c1.15 1.273 2.293 2.54 3.424 3.795l-.32-.052c2.494-1.399 4.954-2.78 7.377-4.142l-.12.3c-.49-1.652-.973-3.285-1.451-4.904l-.046-.147.113-.109a20.498 20.498 0 0 0 3.367-4.283l.08-.13.15.007 5.107.266-.251.18 2.296-8.144.116.275-4.49-2.444-.126-.067.003-.142a20.597 20.597 0 0 0-.638-5.419l-.034-.132.103-.091 3.797-3.42-.043.266c-1.451-2.599-2.82-5.053-4.125-7.387l.23.092c-1.724.507-3.343.985-4.903 1.445l-.109.03-.078-.08a20.597 20.597 0 0 0-4.29-3.393l-.088-.053.006-.103.277-5.107.113.156-8.136-2.326.136-.057-2.467 4.482-.024.046-.05-.001a21.49 21.49 0 0 0-4.133.314l-1.006.193c-.232.05-.34.069-.336.061.001-.006.113-.042.325-.103.219-.058.552-.145 1.002-.236.899-.18 2.277-.406 4.15-.397l-.074.044c.656-1.231 1.444-2.712 2.406-4.514l.043-.08.092.023 8.153 2.255.12.031-.007.125c-.074 1.58-.154 3.252-.244 5.109l-.083-.156a20.958 20.958 0 0 1 4.382 3.427l-.187-.049 4.896-1.468.152-.045.079.138 4.156 7.373.085.15-.128.116-3.789 3.432.067-.223c.456 1.766.693 3.633.668 5.54l-.122-.208 4.498 2.432.168.09-.05.185-2.282 8.15-.053.191-.198-.01-5.106-.258.229-.123a20.955 20.955 0 0 1-3.447 4.391l.067-.254 1.456 4.9.059.198-.18.101c-2.424 1.361-4.883 2.743-7.375 4.145l-.182.1-.138-.153-3.424-3.796.255.079h-.003a21.04 21.04 0 0 1-5.54.659l.23-.135-2.435 4.497-.1.181-.199-.056-8.142-2.293-.197-.055.01-.204.265-5.108.124.229a21.035 21.035 0 0 1-4.385-3.454l.247.065c-1.697.503-3.374 1-4.901 1.45l-.186.056-.094-.168-4.132-7.386-.09-.163.137-.123c1.324-1.19 2.622-2.36 3.8-3.42l-.067.222a20.988 20.988 0 0 1-.652-5.539l.113.194c-1.568-.856-3.1-1.69-4.49-2.447l-.144-.08.044-.157c.81-2.856 1.58-5.577 2.306-8.142l.042-.142.147.007 5.106.275-.156.085a20.97 20.97 0 0 1 3.45-4.36l-.04.153-1.436-4.908-.03-.102.092-.05c3.014-1.671 5.506-3.052 7.4-4.1l.06-.033.043.049 2.509 2.846.64.74c.145.17.216.26.215.265" fill="#FFB6AD"/><path d="M347.903 157.904a9.052 9.052 0 0 0-9.2 0c-9.519 5.61-31.998 17.514-50.196 17.514-.19 0-.38 0-.57-.002-5.09-.03-9.253 4.01-9.253 9.1v28.589c0 35.33 17.521 68.046 46.1 86.085l13.661 8.62a9.096 9.096 0 0 0 9.716 0l13.66-8.62c28.58-18.04 46.1-50.755 46.1-86.085v-28.589c0-5.09-4.163-9.13-9.25-9.1-.19.002-.38.002-.571.002-18.197 0-40.679-11.904-50.197-17.514Z" fill="#F5F5FA"/><path d="M398.1 175.418c-18.197 0-40.679-11.904-50.197-17.514a9.052 9.052 0 0 0-9.2 0c-9.519 5.61-31.998 17.514-50.196 17.514-.19 0-.38 0-.57-.002-5.09-.03-9.253 4.01-9.253 9.1v28.589c0 35.33 17.521 68.046 46.1 86.085l13.661 8.62a9.096 9.096 0 0 0 9.716 0l13.66-8.62c28.58-18.04 46.1-50.755 46.1-86.085v-28.589c0-5.09-4.163-9.13-9.25-9.1-.19.002-.38.002-.571.002Z" stroke="#FF6A58" stroke-width="3"/><path d="m368.418 239.562-6.925.99-5.393-37.71c-1.27-8.875-9.521-15.063-18.392-13.793-8.873 1.269-15.057 9.524-13.789 18.4l5.392 37.711-6.925.99-5.392-37.71c-1.815-12.695 7.032-24.504 19.723-26.319 12.69-1.816 24.492 7.035 26.307 19.73l5.394 37.711Z" fill="#FFB6AD"/><path d="m374.723 262.173-52.053 7.45a5.044 5.044 0 0 1-5.705-4.28l-4.265-29.83a5.043 5.043 0 0 1 4.277-5.706l52.052-7.452a5.044 5.044 0 0 1 5.704 4.28l4.266 29.83a5.044 5.044 0 0 1-4.276 5.708" fill="#FFB6AD"/><path d="M350.293 240.06a5.236 5.236 0 0 0-5.926-4.445 5.24 5.24 0 0 0-4.444 5.928c.339 2.372 2.223 4.121 4.481 4.43l1.108 7.755 2.83-.406-1.11-7.756c2.084-.93 3.401-3.134 3.06-5.506" fill="#BD060A"/><path stroke="#FF6A58" stroke-width="3" stroke-linecap="round" d="M375.874 167.301V135.92M404.701 239.653h42.774"/><path stroke="#FF6A58" stroke-width="4" stroke-linecap="round" d="M399.948 258.673h26.745"/><path stroke="#FF6A58" stroke-width="3" stroke-linecap="round" d="M306.798 285.643v36.137M278.685 184.516h-37.473M277.332 204.175h-19.961"/><path d="M383.617 128.491a7.426 7.426 0 1 1-14.85 0 7.426 7.426 0 1 1 14.85 0ZM427.885 145.287a7.425 7.425 0 1 1-14.85 0 7.428 7.428 0 0 1 7.426-7.43 7.426 7.426 0 0 1 7.424 7.43ZM463 238.62a7.426 7.426 0 0 1-7.424 7.43 7.428 7.428 0 0 1-7.426-7.43 7.425 7.425 0 1 1 14.85 0ZM443.63 258.066a7.426 7.426 0 0 1-7.424 7.429 7.426 7.426 0 0 1-7.424-7.43 7.425 7.425 0 1 1 14.849 0ZM241.164 183.79a7.425 7.425 0 1 1-14.85 0 7.425 7.425 0 1 1 14.85 0ZM254.795 203.54a7.425 7.425 0 1 1-14.85 0 7.425 7.425 0 1 1 14.85 0ZM314.23 329.572a7.425 7.425 0 1 1-14.85 0 7.425 7.425 0 1 1 14.85 0ZM264.582 301.562a7.425 7.425 0 1 1-14.848 0 7.425 7.425 0 1 1 14.848 0Z" stroke="#FF6A58" stroke-width="3"/><path d="M390.523 182.968c-15.702 0-35.1-10.272-43.314-15.113a7.81 7.81 0 0 0-7.94 0c-8.21 4.84-27.61 15.113-43.312 15.113-.163 0-.328 0-.493-.002-4.388-.025-7.982 3.46-7.982 7.852v24.669c0 30.487 15.118 58.716 39.779 74.28l11.788 7.44a7.848 7.848 0 0 0 8.382 0l11.789-7.44c24.66-15.564 39.778-43.793 39.778-74.28v-24.67c0-4.39-3.594-7.876-7.983-7.85h-.492Z" stroke="#FFB6AD" stroke-width=".75"/><path stroke="#FF6A58" stroke-width="3" stroke-linecap="round" d="M292.852 270.767v30.047h-25.976M389.618 172.22v-26.364h22.792"/></g></svg>