<svg width="51" height="61" xmlns="http://www.w3.org/2000/svg"><g fill="#FF6A58" fill-rule="nonzero"><path d="M50.074 10.4C41.846 8.14 33.57 4.618 26.14.216a1.254 1.254 0 0 0-1.28 0C17.217 4.743 9.388 8.075.927 10.401c-.547.15-.926.648-.926 1.217v12.896c0 13.28 6.106 22.07 11.229 27.106 5.515 5.422 11.939 8.42 14.271 8.42 2.333 0 8.757-2.998 14.272-8.42C44.894 46.585 51 37.794 51 24.514V11.618c0-.569-.379-1.067-.926-1.217Zm-1.59 14.114c0 12.403-5.695 20.606-10.473 25.303-5.424 5.331-11.222 7.699-12.51 7.699-1.29 0-7.088-2.368-12.511-7.7C8.212 45.12 2.516 36.918 2.516 24.515V12.576c8.092-2.305 15.628-5.522 22.985-9.811 7.173 4.175 15.085 7.552 22.983 9.81v11.939Z"/><path d="M14.35 12.435a1.257 1.257 0 0 0-1.632-.712 102.123 102.123 0 0 1-6.855 2.43 1.262 1.262 0 0 0-.882 1.205v4.874a1.26 1.26 0 0 0 1.258 1.262 1.26 1.26 0 0 0 1.258-1.262V16.28c2.065-.67 4.128-1.411 6.144-2.208.646-.256.964-.989.709-1.637ZM16.74 12.674c.168 0 .34-.034.504-.106l.023-.01a1.261 1.261 0 0 0-1.016-2.31l-.02.01a1.26 1.26 0 0 0 .509 2.416ZM40.488 40.737a1.256 1.256 0 0 0-1.741.366 30.702 30.702 0 0 1-3.615 4.53 32.167 32.167 0 0 1-3.609 3.222 1.265 1.265 0 0 0-.237 1.769 1.255 1.255 0 0 0 1.763.238 34.712 34.712 0 0 0 3.891-3.474 33.193 33.193 0 0 0 3.913-4.904 1.264 1.264 0 0 0-.365-1.747ZM28.602 50.834l-.072.043a1.264 1.264 0 0 0 .631 2.354c.214 0 .43-.055.63-.17l.082-.05c.6-.351.801-1.124.45-1.726a1.256 1.256 0 0 0-1.721-.451ZM16.925 27.464a4.056 4.056 0 0 0-2.892-1.202c-1.092 0-2.12.427-2.892 1.202a4.12 4.12 0 0 0 0 5.804l7.428 7.453a4.058 4.058 0 0 0 2.892 1.201c1.093 0 2.12-.426 2.893-1.201L39.86 25.163a4.119 4.119 0 0 0 0-5.804 4.057 4.057 0 0 0-2.892-1.202c-1.093 0-2.12.427-2.893 1.202L21.461 32.014l-4.536-4.55Zm18.93-6.32a1.562 1.562 0 0 1 1.113-.463c.42 0 .816.164 1.113.463a1.585 1.585 0 0 1 0 2.234L22.575 38.936a1.562 1.562 0 0 1-1.114.462c-.42 0-.816-.164-1.114-.462l-7.427-7.452a1.585 1.585 0 0 1 0-2.235 1.563 1.563 0 0 1 1.113-.462c.421 0 .816.164 1.114.462l5.424 5.443a1.256 1.256 0 0 0 1.78 0l13.503-13.548Z"/></g></svg>