<svg width="60" height="61" xmlns="http://www.w3.org/2000/svg"><g fill="#FF6A58" fill-rule="evenodd"><path d="M13.499 60.654a1.173 1.173 0 0 0 1.653.01l5.682-5.585a3.528 3.528 0 0 0 .834-3.628l1.223-1.176a3.5 3.5 0 0 1 2.44-.984h15.58c2.763 0 5.375-1.059 7.356-2.982.081-.079-.619.744 10.628-12.668a4.676 4.676 0 0 0-.556-6.592 4.707 4.707 0 0 0-6.577.522l-6.915 7.092a4.714 4.714 0 0 0-3.644-1.741H28.135a15.15 15.15 0 0 0-5.868-1.17c-5.644 0-10.571 2.601-13.216 7.477a3.506 3.506 0 0 0-3.134.969L.342 45.777a1.168 1.168 0 0 0-.002 1.649L13.5 60.654Zm8.767-26.563c1.795 0 3.53.36 5.16 1.071.148.065.307.099.47.099h13.307a2.348 2.348 0 0 1 2.344 2.338 2.344 2.344 0 0 1-2.344 2.338h-9.561a1.17 1.17 0 1 0 0 2.338h9.561c2.585 0 4.688-2.097 4.688-4.676 0-.206-.015-.41-.041-.611 6.69-6.861 7.632-7.825 7.673-7.873a2.356 2.356 0 0 1 3.304-.279 2.34 2.34 0 0 1 .275 3.3L46.59 44.675a8.17 8.17 0 0 1-5.68 2.279H25.33a5.834 5.834 0 0 0-4.068 1.64l-.996.958-9.181-9.16c2.146-4.016 6.172-6.3 11.18-6.3Zm-14.69 7.76c.386-.386.98-.456 1.45-.165.203.123-.379-.406 10.151 10.086a1.17 1.17 0 0 1 .006 1.647L14.34 58.18 2.825 46.604l4.75-4.754Z"/><path d="M45.26 10.889h-.404a11.211 11.211 0 0 0-.994-2.394l.286-.286c.328-.327.509-.763.509-1.228 0-.465-.18-.901-.509-1.228L42.24 3.85a1.726 1.726 0 0 0-1.232-.51c-.467 0-.904.18-1.23.508l-.287.286a11.219 11.219 0 0 0-2.399-.994v-.403c0-.958-.78-1.737-1.74-1.737h-2.7c-.96 0-1.74.78-1.74 1.737v.403c-.836.237-1.64.57-2.401.994l-.285-.284a1.727 1.727 0 0 0-1.232-.51c-.467 0-.904.18-1.23.508l-1.91 1.905a1.722 1.722 0 0 0-.507 1.228c0 .465.18.901.508 1.228l.286.286c-.425.76-.758 1.561-.995 2.394h-.404c-.96 0-1.741.78-1.741 1.737v2.696c0 .958.781 1.738 1.74 1.738h.405c.237.832.57 1.634.995 2.394l-.286.286a1.722 1.722 0 0 0-.508 1.228c0 .464.18.9.508 1.228l1.907 1.903c.328.329.765.51 1.232.51.467 0 .904-.181 1.23-.509l.287-.285c.762.424 1.565.756 2.4.993v.403c0 .958.782 1.738 1.742 1.738h2.699c.96 0 1.74-.78 1.74-1.738v-.403a11.16 11.16 0 0 0 2.4-.993l.284.284c.328.329.765.51 1.232.51.467 0 .904-.181 1.23-.508l1.911-1.905c.328-.327.509-.764.509-1.228 0-.465-.18-.901-.509-1.228l-.286-.286c.423-.758.756-1.56.994-2.394h.403c.96 0 1.741-.78 1.741-1.738v-2.696c0-.958-.78-1.737-1.74-1.737Zm-9.722 14.322a.19.19 0 0 1-.187.187h-2.7a.19.19 0 0 1-.187-.187V19.32a.775.775 0 0 0-.506-.727c-2.087-.772-3.49-2.777-3.49-4.988A5.324 5.324 0 0 1 30.982 9.1c-.003.101-.01.197-.013.247-.006.079-.011.14-.011.202v3.658A3.21 3.21 0 0 0 33.95 16.4a.785.785 0 0 0 .102 0 3.209 3.209 0 0 0 2.991-3.193V9.548c0-.061-.005-.123-.01-.2a5.273 5.273 0 0 1-.014-.249 5.324 5.324 0 0 1 2.512 4.505c0 2.21-1.4 4.215-3.487 4.988a.775.775 0 0 0-.506.727v5.892Zm9.909-9.889c0 .1-.088.187-.188.187h-1.006a.776.776 0 0 0-.757.604 9.683 9.683 0 0 1-1.266 3.049.774.774 0 0 0 .107.962l.713.712a.186.186 0 0 1 .053.132c0 .029-.006.085-.053.131l-1.912 1.907a.181.181 0 0 1-.13.053.182.182 0 0 1-.133-.055l-.713-.712a.778.778 0 0 0-.965-.106 9.647 9.647 0 0 1-2.106.998v-3.35c2.41-1.119 3.994-3.557 3.994-6.23A6.872 6.872 0 0 0 38.07 7.93c-.29-.198-1.17-.798-1.938-.356-.756.434-.68 1.452-.648 1.886l.006.087v3.658c0 .849-.65 1.56-1.489 1.642a1.654 1.654 0 0 1-1.49-1.642V9.554c0-.023.003-.055.006-.093.032-.434.108-1.451-.647-1.886-.769-.442-1.65.158-1.94.356a6.872 6.872 0 0 0-3.015 5.673c0 2.673 1.585 5.112 3.996 6.23v3.35a9.695 9.695 0 0 1-2.108-.999.776.776 0 0 0-.965.107l-.714.714a.18.18 0 0 1-.131.053.182.182 0 0 1-.132-.055L24.952 21.1a.186.186 0 0 1-.053-.132c0-.03.007-.086.053-.132l.713-.712a.774.774 0 0 0 .108-.962 9.633 9.633 0 0 1-1.266-3.047.776.776 0 0 0-.758-.606h-1.008a.192.192 0 0 1-.188-.187v-2.696a.19.19 0 0 1 .188-.187h1.008a.776.776 0 0 0 .758-.605 9.63 9.63 0 0 1 1.266-3.047.774.774 0 0 0-.108-.962l-.713-.712a.186.186 0 0 1-.053-.132c0-.03.007-.086.053-.132l1.91-1.907a.18.18 0 0 1 .131-.053c.035 0 .087.01.132.055l.713.712c.257.256.658.3.965.107a9.718 9.718 0 0 1 3.056-1.266.775.775 0 0 0 .605-.756V2.737a.19.19 0 0 1 .188-.187h2.699a.19.19 0 0 1 .187.187v1.004c0 .363.252.677.606.756a9.68 9.68 0 0 1 3.053 1.266c.307.194.708.15.965-.107l.715-.713a.181.181 0 0 1 .13-.053c.036 0 .087.009.133.055l1.91 1.904a.186.186 0 0 1 .054.132c0 .03-.007.086-.054.132l-.713.712a.774.774 0 0 0-.107.962 9.684 9.684 0 0 1 1.266 3.048c.08.353.394.604.757.604h1.006a.19.19 0 0 1 .188.187v2.696Z" stroke="#FF6A58" stroke-width=".5" fill-rule="nonzero"/></g></svg>