<svg width="60" height="61" xmlns="http://www.w3.org/2000/svg"><g transform="translate(0 .04)" fill="#FF6A58" fill-rule="nonzero"><path d="M42 48h-1V38h-2v10H5l-.001-20H5v-2a2.002 2.002 0 0 0-2 2v20H2V28a3.003 3.003 0 0 1 3-3v-2a5.006 5.006 0 0 0-5 5v21a5.006 5.006 0 0 0 5 5h13v1a3.003 3.003 0 0 1-3 3 1 1 0 0 0 0 2h14a1 1 0 0 0 0-2 3.003 3.003 0 0 1-3-3v-1h13a5.006 5.006 0 0 0 5-5V38h-2v10ZM25.002 58h-6.004A4.975 4.975 0 0 0 20 55v-1h4v1a4.975 4.975 0 0 0 1.002 3ZM39 52H5a3.005 3.005 0 0 1-2.828-2h39.656A3.005 3.005 0 0 1 39 52ZM57 0H31a3.003 3.003 0 0 0-3 3v22a3.003 3.003 0 0 0 3 3h26a3.003 3.003 0 0 0 3-3V3a3.003 3.003 0 0 0-3-3Zm1 25c0 .552-.448 1-1 1H31c-.552 0-1-.448-1-1V3c0-.552.448-1 1-1h26c.552 0 1 .448 1 1v22Z"/><path d="M32 6h24v2H32z"/><circle cx="33" cy="4" r="1"/><circle cx="36" cy="4" r="1"/><circle cx="39" cy="4" r="1"/><path d="M42 10h-9a1 1 0 0 0-1 1v9a1 1 0 0 0 1 1h9a1 1 0 0 0 1-1v-9a1 1 0 0 0-1-1Zm-1 9h-7v-7h7v7ZM55 10h-9a1 1 0 0 0-1 1v9a1 1 0 0 0 1 1h9a1 1 0 0 0 1-1v-9a1 1 0 0 0-1-1Zm-1 9h-7v-7h7v7ZM34 22h4v2h-4zM39 22h2v2h-2zM47 22h4v2h-4zM52 22h2v2h-2z"/><path d="M47 33c0 .552-.448 1-1 1H20c-.552 0-1-.448-1-1V11c0-.552.448-1 1-1h6V8h-6a3.003 3.003 0 0 0-3 3v22a3.003 3.003 0 0 0 3 3h26a3.003 3.003 0 0 0 3-3v-3h-2v3Z"/><path d="M21 14h5v2h-5z"/><circle cx="22" cy="12" r="1"/><circle cx="25" cy="12" r="1"/><path d="M9 46h26a3.003 3.003 0 0 0 3-3v-5h-2v5c0 .552-.448 1-1 1H9c-.552 0-1-.448-1-1V21c0-.552.448-1 1-1h6v-2H9a3.003 3.003 0 0 0-3 3v22a3.003 3.003 0 0 0 3 3Z"/><path d="M10 24h5v2h-5z"/><circle cx="11" cy="22" r="1"/><circle cx="14" cy="22" r="1"/></g></svg>