<svg width="24" height="24" viewBox="0 0 24 24" fill="none" xmlns="http://www.w3.org/2000/svg">
<path d="M24.0006 12C24.0006 18.6272 18.6278 24 12 24H11.9775C5.36041 23.9876 0 18.6183 0 12C0 5.3817 5.36041 0.0118279 11.9775 0H12C18.6278 0 24.0006 5.37105 24.0006 12Z" fill="black"/>
<path d="M11.9775 0V24C5.36041 23.9876 0 18.6183 0 12C0 5.3817 5.36041 0.0118279 11.9775 0V0Z" fill="#0C0C0C"/>
<path d="M18.5297 8.67816L18.515 11.1366C18.0359 11.1307 17.5593 11.0668 17.0956 10.9462C16.3803 10.7593 15.7056 10.4419 15.1056 10.01C15.1056 10.2613 15.1091 10.6363 15.1091 11.0922C15.1091 11.699 15.1091 12.0438 15.1056 12.4099C15.0949 14.6714 15.1511 15.109 14.9524 16.0032C14.9111 16.2188 14.8545 16.4313 14.7833 16.6389C14.4012 17.7034 13.5685 18.5562 12.7199 19.0098C12.483 19.1357 12.2345 19.2381 11.9777 19.3156C10.3738 19.8017 8.44645 19.3747 7.45173 18.1919L7.44522 18.1848L7.43753 18.1748C6.59243 17.1552 6.40791 15.5656 6.39017 15.1587C6.39017 15.1066 6.38662 15.0558 6.38662 15.0558C6.3736 14.5 6.45356 13.9459 6.62318 13.4164C6.79468 12.8688 7.35947 11.7256 8.62801 11.0313C9.41916 10.6051 10.3222 10.4323 11.2148 10.5363L11.1858 13.0243C11.1355 13.0113 9.92021 12.7233 9.12242 13.5513C8.39973 14.3011 8.44645 15.5094 8.95919 16.1936C8.9864 16.2303 9.01537 16.2658 9.04554 16.2989C9.33236 16.6188 9.69607 16.7389 9.9415 16.8229C10.2669 16.9301 10.6085 16.9801 10.951 16.9707C11.3179 16.965 11.6749 16.8503 11.9765 16.6413C12.8104 16.0747 12.9227 15.0658 12.9269 15.0085C12.9166 11.7605 12.907 8.51257 12.8979 5.26463V5.26167L14.4609 5.23388H14.4864L14.7129 5.22974C14.8799 5.8308 15.163 6.39335 15.5462 6.88564C15.6669 7.03962 15.7972 7.18579 15.9365 7.32328C16.4625 7.83524 17.0943 8.22565 17.7875 8.46703H17.7923C18.0327 8.55491 18.2792 8.62547 18.5297 8.67816V8.67816Z" fill="#FD2854"/>
<path d="M17.823 9.79045H17.8183C16.9765 9.92531 16.1148 9.85987 15.3031 9.59943C14.7363 9.41513 14.2042 9.1375 13.7288 8.77798C14.0138 10.501 14.0138 12.2592 13.7288 13.9823C13.3911 16.0072 13.1794 17.2763 12.0492 18.0883C12.0256 18.1055 12.0013 18.1226 11.9771 18.1386C10.4164 19.1954 8.23591 18.6708 7.43694 18.1735L7.42511 18.1664L7.40264 18.1522C7.13928 17.9777 6.89225 17.7798 6.66458 17.5608C6.25644 17.1649 5.93076 16.6921 5.70634 16.1696C5.48191 15.6472 5.36318 15.0855 5.357 14.5169C5.34181 13.928 5.43958 13.3416 5.64501 12.7894C5.77808 12.4346 6.27248 11.1725 7.64984 10.4043C8.53182 9.92072 9.55095 9.74822 10.5429 9.91464C10.539 10.1118 10.5353 10.3089 10.5317 10.506V10.5102L10.5086 11.758C10.077 11.6563 9.63073 11.6315 9.19043 11.6847C8.83559 11.7285 8.48785 11.7693 8.11823 12.0017C7.64485 12.3064 7.3098 12.7845 7.185 13.3335C7.10603 13.5994 7.08983 13.88 7.13769 14.1532C7.15189 14.2312 7.25597 14.7735 7.6936 15.1627C7.84086 15.2934 7.90355 15.2987 8.11823 15.4992C8.30747 15.6766 8.35478 15.7618 8.52806 15.909C8.52806 15.909 8.57064 15.9451 8.64043 15.996C8.64491 15.9998 8.64965 16.0034 8.65462 16.0066C8.75005 16.0764 8.85024 16.1394 8.95446 16.1953C9.38795 16.4224 10.1639 16.4466 10.7328 16.1704C11.5199 15.7878 11.9493 14.9078 11.9475 14.385C11.938 11.1359 11.9284 7.88695 11.9185 4.63822H11.9729L14.387 4.62402C14.3853 4.81233 14.4114 4.99985 14.4645 5.18053C14.4704 5.20004 14.4763 5.21838 14.4828 5.23967C14.4893 5.26096 14.4935 5.27101 14.4988 5.28579C14.5362 5.38408 14.5795 5.48005 14.6283 5.57321L14.662 5.64122V5.64655C14.6615 5.64808 14.6615 5.64975 14.662 5.65128L14.6673 5.66251L14.6727 5.67316C14.6759 5.68004 14.6794 5.68675 14.6833 5.69327C14.6869 5.70095 14.691 5.70864 14.6951 5.71633C14.7176 5.7595 14.7484 5.81628 14.7833 5.88015C14.8051 5.91977 14.8282 5.95939 14.8519 5.99843L14.8773 6.04041C14.8897 6.0617 14.9027 6.083 14.9157 6.10369L14.963 6.1788C15.147 6.46918 15.4699 6.95826 15.9276 7.32788C16.571 7.84713 17.3103 7.99379 17.7739 8.03756C17.7769 8.18304 17.7804 8.32852 17.7834 8.47401C17.8007 8.91322 17.814 9.35203 17.823 9.79045Z" fill="#24F6FA"/>
<path d="M17.8307 10.4853C16.6121 10.5301 15.4156 10.1512 14.4449 9.41315V14.6174C14.4331 14.8167 14.2586 17.0149 12.2727 18.2249C12.1746 18.2841 12.0758 18.3391 11.977 18.3899C10.1088 19.3433 8.28319 18.5963 8.10281 18.5189C7.92346 18.4602 7.75158 18.3808 7.59066 18.2823C7.54039 18.251 7.49131 18.2184 7.44459 18.1847L7.4026 18.1534C6.18433 17.2284 6.13406 15.3442 6.12637 15.0663C6.11335 14.5105 6.1933 13.9564 6.36293 13.4269C6.564 12.7853 7.16427 11.7036 8.36776 11.0418C9.03182 10.6805 9.77811 10.4971 10.534 10.5096V10.5137C10.5242 11.1386 10.5143 11.7637 10.5045 12.389C10.3773 12.3547 9.59786 12.1584 8.83614 12.638C8.36276 12.9427 8.02771 13.4209 7.90292 13.9698C7.82825 14.2363 7.81211 14.5157 7.85561 14.7889C7.92314 15.1263 8.08234 15.4386 8.31571 15.6914C8.41382 15.8044 8.52343 15.9069 8.64276 15.9971C8.64723 16.001 8.65197 16.0046 8.65695 16.0078C8.75065 16.0801 8.85106 16.1433 8.95679 16.1964L8.96033 16.1994C9.17167 16.5185 9.47651 16.7645 9.83309 16.9036C10.1897 17.0427 10.5805 17.0682 10.9522 16.9765C11.1253 16.9404 11.2935 16.8836 11.4531 16.8074C11.6464 16.7154 11.8235 16.5928 11.9776 16.4442C12.5761 15.8688 12.6637 15.0728 12.6678 15.0249L12.6418 5.27338L12.902 5.26806L14.465 5.2373H14.4875C14.4934 5.25268 14.4999 5.26806 14.5064 5.28343C14.5425 5.37037 14.5857 5.46677 14.636 5.57085L14.6697 5.63886V5.64418C14.6691 5.64572 14.6691 5.64739 14.6697 5.64892L14.675 5.66015L14.6803 5.6708C14.6835 5.67768 14.6871 5.68439 14.691 5.69091C14.6945 5.69859 14.6986 5.70628 14.7028 5.71397C14.73 5.7672 14.7619 5.82219 14.7909 5.87779C14.8128 5.91741 14.8358 5.95703 14.8595 5.99606L14.8849 6.03805L14.9234 6.10133L14.9707 6.17644C15.2412 6.59954 15.5654 6.98578 15.9352 7.32552C16.475 7.81965 17.1029 8.20767 17.7863 8.46928H17.791C17.7987 8.9075 17.8064 9.34691 17.8135 9.78513L17.8307 10.4853Z" fill="white"/>
</svg>
