<svg width="81" height="38" xmlns="http://www.w3.org/2000/svg"><path d="M54.942 23.414v-1.56h-3.018c.204-.48.83-1.008 1.66-1.8 1.058-1.008 1.346-1.488 1.346-2.76 0-1.333-.566-2.376-2.634-2.376-1.828 0-2.742.852-2.742 2.555v.277h1.877c0-.648 0-1.56.77-1.56.576 0 .709.443.709 1.116 0 .636-.025.984-1.48 2.28-.709.637-1.923 1.825-1.923 3.829h5.435v-.001Zm4.41 0c.083-1.885.997-4.849 2.308-6.829v-1.5h-5.423v1.705h3.488c-1.227 1.596-2.345 4.669-2.465 6.625h2.092v-.001Zm6.38.167c2.538 0 2.79-1.895 2.802-4.331 0-2.736-.252-4.332-2.802-4.332-2.538 0-2.79 1.896-2.802 4.332 0 2.735.252 4.331 2.802 4.331Zm0-1.271c-.661 0-.774-.603-.78-2.798v-.25c0-2.424.095-3.073.781-3.073s.782.648.782 3.073c0 2.4-.096 3.048-.782 3.048Zm6.754 1.271c2.537 0 2.79-1.895 2.802-4.331 0-2.736-.252-4.332-2.802-4.332-2.538 0-2.79 1.896-2.802 4.332 0 2.735.252 4.331 2.802 4.331Zm0-1.271c-.662 0-.775-.603-.781-2.798v-.25c0-2.424.096-3.073.782-3.073.661 0 .775.605.78 2.829v.244c0 2.4-.095 3.048-.781 3.048Zm8.016 1.104v-8.496h-1.419c-.096.54-.457 1.332-1.984 1.332h-.252v1.271h1.635v5.893h2.021-.001ZM23.478.33a10.099 10.099 0 0 0-2.073-.023c-.256-.024-.56 0-.862.023a18.163 18.163 0 0 0-13.957 8.44c.234-.023.513.07.745-.023a21.782 21.782 0 0 1 1.887-2.341c.607-.59 1.166-1.158 1.818-1.584L12.9 5.935c-.722.922-1.468 1.844-2.004 2.837.163.07.466.046.7 0 .582-.875 1.21-1.75 1.956-2.53l3.007 1.064.093.095-.583 1.372c.256.047.42.023.676 0l.607-1.253c1.35.307 2.772.472 4.217.52.187.165.046.52.117.733h.63c.07-.237-.024-.497.07-.71 1.35-.071 2.772-.213 4.076-.543l.117.023.63 1.23c.21 0 .489.047.652-.047l-.582-1.372.046-.047c1.072-.283 2.074-.709 3.1-1.134.721.78 1.398 1.702 2.004 2.6.256 0 .513.023.7-.047a9.216 9.216 0 0 0-1.003-1.49c-.302-.45-.63-.851-1.025-1.277v-.12l1.632-.969.233-.095a17.326 17.326 0 0 1 3.681 3.948c.28 0 .513.095.745-.023C34.266 3.877 29.117.78 23.548.331l-.023.047-.047-.047Zm2.4 1.065v.046c-2.027 1.514-5.313 1.656-7.456.26-.116-.094-.349-.141-.372-.306 2.47-.591 5.383-.64 7.83 0h-.002Zm6.407 2.883-.047.095-1.608.923h-.117a20.24 20.24 0 0 0-4.147-3.263c.047-.165.28-.283.443-.402 1.957.52 3.798 1.419 5.475 2.649l.001-.002ZM17.606 2.033c-1.445.923-2.866 2.01-4.17 3.334-.63-.237-1.211-.59-1.77-.993v-.047a16.495 16.495 0 0 1 4.822-2.506c.07-.07.117-.142.21-.142v.047c.188.047.327-.165.49-.023.14.118.303.213.42.33h-.002Zm12.232 3.57-.046.071c-.909.402-1.841.781-2.843.993a40.064 40.064 0 0 0-2.4-3.711c.326-.189.722-.33 1.072-.52 1.515.78 2.983 1.89 4.217 3.167ZM19.353 2.908l-.07.188c-.885 1.135-1.585 2.365-2.283 3.57l-.093.023a18.341 18.341 0 0 1-2.773-.969l.047-.142c1.28-1.253 2.632-2.293 4.123-3.097.35.142.7.26 1.05.426Zm2.26.449c.07 1.23.023 2.648.023 3.948-.652.095-1.234-.023-1.887-.07-.63-.095-1.421-.166-2.05-.379.676-1.3 1.467-2.553 2.423-3.711l1.491.212Zm2.19-.189c.908 1.182 1.794 2.388 2.4 3.688-1.258.311-2.55.47-3.845.472-.047-1.253-.023-2.648 0-3.948l1.445-.212Zm-1.888 8.038c-2.563-1.111-6.15-1.23-8.48.497-1.515 1.135-1.981 3.168-1.585 4.965.302 1.702 1.887 2.955 3.402 3.546 2.074.756 4.24 1.3 6.338 2.034.21.095.489.307.442.567 0 .214-.21.331-.372.426-2.19.614-4.567.142-6.151-1.56-.187-.237-.303-.52-.49-.756l-3.145.023c-.047 1.915-.07 4.113 0 6.004l3.496-.023.046-1.135c.396.189.792.426 1.188.64 2.423 1.039 5.545 1.276 7.945 0 1.747-.994 2.68-2.91 2.423-4.966-.255-2.009-2.12-3.83-4.007-4.326l-5.638-1.68-.42-.211c-.186-.166-.302-.379-.255-.64.443-.78 1.468-.543 2.236-.52 1.632.237 3.309.805 4.264 2.341 1.026 0 2.213.024 3.332-.023.047-1.939-.023-3.641-.046-5.604a53.753 53.753 0 0 0-3.38.024c-.046.284.048.686-.07.97l-1.071-.591-.002-.002Zm19.758.756c-3.03-1.985-7.642-2.127-10.764-.33-1.7.898-2.819 2.671-3.168 4.492-.63 3.002-.466 6.573 1.77 8.82 2.61 2.364 6.407 2.883 9.786 1.915a4.33 4.33 0 0 0 1.02-.358l.099-.045a6.913 6.913 0 0 0 2.796-2.174c1.723-2.6 1.84-6.501.791-9.433-.419-1.135-1.28-2.151-2.33-2.884v-.003Zm-3.425 3.405c.35.544.326 1.253.396 1.89-.023 1.349.093 2.956-.14 4.327-.117.568-.49 1.159-1.072 1.372-.932.426-2.19.307-3.052-.189-.723-.52-.815-1.395-.909-2.222-.07-1.632-.186-3.358.256-4.847.35-.922 1.305-1.158 2.168-1.23.908 0 1.794.143 2.353.899Zm-36.16-4.823-1.444.023a113.88 113.88 0 0 0 0 3.995c.792.024 1.538 0 2.307.07v8.04l-.024.33-2.306.047a54.42 54.42 0 0 0 0 3.9h10.275v-3.9c-.769-.047-1.632.023-2.377-.07l.023-8.3.047-.07 2.307-.024c.023-1.348.046-2.79-.024-4.02L2.09 10.54v.003Zm14.773 18.157c-.234 0-.49-.047-.653.024l.583 1.395-.07.07a28.05 28.05 0 0 0-3.076 1.111l-.094-.046a18.842 18.842 0 0 1-1.794-2.34c-.116-.402-.582-.166-.838-.214.56 1.04 1.304 1.963 2.05 2.909-.629.378-1.257.804-1.91 1.111a17.07 17.07 0 0 1-3.681-3.995c-.28-.047-.466-.023-.745 0 1.677 2.695 4.287 5.06 7.013 6.455 0 0 0-.024.023-.024.024 0 .07.047.024.072 1.84.921 3.798 1.583 5.87 1.867 7.154.97 13.98-2.174 17.941-8.369a3.955 3.955 0 0 0-.745 0c-.979 1.442-2.213 2.837-3.564 3.925-.047.07-.187.047-.234-.023-.583-.38-1.21-.686-1.77-1.065.745-.922 1.468-1.844 2.027-2.86h-.723c-.583.874-1.187 1.797-1.957 2.576-1.025-.425-1.957-.804-3.006-1.087l-.117-.095c.164-.473.466-.922.56-1.395h-.63l-.63 1.276c-1.374-.307-2.889-.472-4.287-.567-.07-.214.024-.52-.07-.71h-.606c-.047.284.07.496-.07.733a26.77 26.77 0 0 0-4.194.52l-.63-1.252.003-.002Zm4.893 5.439c-.489.118-1.025.118-1.491.236-.955-1.158-1.747-2.411-2.423-3.711l.117-.095c1.21-.237 2.47-.426 3.774-.426l.023 3.996Zm4.59-3.523.023.07c-.652 1.277-1.468 2.507-2.353 3.665-.396.048-.77-.119-1.165-.142l-.396-.047c-.047-1.395-.07-2.625 0-4.019 1.328.024 2.655.166 3.891.473Zm-9.204.212c.676 1.3 1.515 2.53 2.353 3.76-.325.188-.721.307-1.048.497a15.729 15.729 0 0 1-4.24-3.168v-.071c.908-.45 1.863-.78 2.842-1.04l.093.023v-.001Zm12.815.993c-.745.874-1.701 1.632-2.587 2.27-.536.33-1.072.685-1.631.969l-1.002-.449.07-.165a28.754 28.754 0 0 0 2.236-3.593l.07-.048a12.75 12.75 0 0 1 2.843 1.016h.001Zm2.494 1.347c-1.305 1.064-2.82 1.774-4.358 2.364l-1.095.356c-.187-.095-.35-.237-.513-.38l.047-.07a20.912 20.912 0 0 0 4.123-3.285 9 9 0 0 1 1.794 1.016l.002-.001Zm-14.773 2.34a1.837 1.837 0 0 1-.466.38c-1.957-.52-3.774-1.419-5.453-2.649v-.071c.56-.355 1.12-.733 1.724-.993 1.328 1.347 2.703 2.364 4.194 3.334h.001Zm8.341.545c.07.142-.117.095-.163.142-2.47.544-5.22.567-7.69-.047-.046-.119.117-.142.187-.212 2.167-1.442 5.545-1.442 7.666.118v-.001Z" fill="#FFF" fill-rule="nonzero"/></svg>