<svg width="73" height="34" xmlns="http://www.w3.org/2000/svg"><g fill="#FFF" fill-rule="nonzero"><path d="M0 20.59h6.666v-6.687H0v6.687Zm13.374 0h6.666v-6.687h-6.666v6.687Z"/><path d="M13.374 7.173h6.666V.486h-6.666v6.687Zm-6.665 6.73h6.665V7.216H6.71v6.687ZM4.724 31.618V29.95c-2.007.253-2.675.78-2.675 1.53 0 .655.445.942 1.067.942.602 0 1.061-.296 1.61-.804m-4.353-.005c0-1.59 1.314-2.419 4.353-2.745-.025-.798-.344-1.462-1.344-1.462-.736 0-1.429.332-2.08.731l-.64-1.16c.814-.514 1.863-.974 3.039-.974 1.85 0 2.76 1.143 2.76 3.21v4.394H5.039l-.133-.823h-.049c-.662.568-1.422 1.004-2.297 1.004-1.296 0-2.188-.882-2.188-2.176M7.811 32.754l.808-1.106c.657.514 1.293.828 2.043.828.808 0 1.188-.38 1.188-.888 0-.622-.802-.9-1.591-1.202-.97-.366-2.08-.925-2.08-2.164 0-1.289 1.037-2.219 2.695-2.219 1.03 0 1.857.42 2.46.888l-.796 1.07c-.519-.38-1.04-.646-1.621-.646-.745 0-1.097.356-1.097.822 0 .586.747.81 1.549 1.106 1 .375 2.122.858 2.122 2.243 0 1.275-1.007 2.303-2.875 2.303a4.622 4.622 0 0 1-2.804-1.034M14.306 32.754l.808-1.106c.657.514 1.293.828 2.043.828.808 0 1.188-.38 1.188-.888 0-.622-.802-.9-1.591-1.202-.97-.366-2.08-.925-2.08-2.164 0-1.289 1.037-2.219 2.695-2.219 1.03 0 1.857.42 2.46.888l-.796 1.07c-.519-.38-1.04-.646-1.621-.646-.745 0-1.097.356-1.097.822 0 .586.747.81 1.549 1.106 1 .375 2.122.858 2.122 2.243 0 1.275-1.007 2.303-2.876 2.303a4.622 4.622 0 0 1-2.803-1.034M26.304 29.901c0-1.487-.651-2.479-1.736-2.479-1.084 0-1.736.992-1.736 2.48 0 1.486.652 2.466 1.736 2.466 1.085 0 1.736-.98 1.736-2.467m-5.256 0c0-2.472 1.675-3.9 3.52-3.9s3.52 1.427 3.52 3.9c0 2.46-1.675 3.887-3.52 3.887s-3.52-1.426-3.52-3.887m8.273 0c0-2.472 1.742-3.9 3.713-3.9.941 0 1.628.363 2.164.836l-.844 1.13c-.392-.345-.766-.545-1.23-.545-1.193 0-2.019.992-2.019 2.48 0 1.486.814 2.466 1.965 2.466.578 0 1.109-.284 1.531-.64l.706 1.148a3.65 3.65 0 0 1-2.418.912c-2.019 0-3.569-1.426-3.569-3.887M36.771 33.607h1.737v-7.423H36.77v7.423Zm-.198-9.708c0-.587.458-.986 1.073-.986s1.072.399 1.072.986c0 .573-.457.985-1.072.985s-1.073-.412-1.073-.985ZM44.675 31.618V29.95c-2.008.253-2.676.78-2.676 1.53 0 .655.445.942 1.067.942.603 0 1.061-.296 1.61-.804m-4.352-.005c0-1.59 1.314-2.419 4.352-2.745-.025-.798-.344-1.462-1.344-1.462-.736 0-1.428.332-2.08.731l-.638-1.16c.813-.514 1.862-.974 3.038-.974 1.85 0 2.761 1.143 2.761 3.21v4.394H44.99l-.133-.823h-.047c-.663.568-1.423 1.004-2.297 1.004-1.296 0-2.188-.882-2.188-2.176m8.189-.507v-3.536h-1.055v-1.307l1.146-.079.205-2.025h1.44v2.025h1.887v1.385H50.25V31.1c0 .874.338 1.303 1.048 1.303.254 0 .554-.084.771-.169l.295 1.282c-.403.133-.918.272-1.512.272-1.707 0-2.34-1.081-2.34-2.683M53.695 33.607h1.736v-7.423h-1.736v7.423Zm-.199-9.708c0-.587.458-.986 1.073-.986s1.072.399 1.072.986c0 .573-.457.985-1.072.985s-1.073-.412-1.073-.985ZM62.411 29.901c0-1.487-.651-2.479-1.736-2.479s-1.736.992-1.736 2.48c0 1.486.651 2.466 1.736 2.466s1.736-.98 1.736-2.467m-5.256 0c0-2.472 1.676-3.9 3.52-3.9s3.52 1.427 3.52 3.9c0 2.46-1.676 3.887-3.52 3.887s-3.52-1.426-3.52-3.887m8.762-3.717h1.422l.133 1.004h.048c.664-.647 1.417-1.185 2.43-1.185 1.585 0 2.278 1.076 2.278 2.95v4.655h-1.736v-4.43c0-1.221-.35-1.681-1.152-1.681-.651 0-1.079.32-1.687.925v5.186h-1.736v-7.424ZM31.8 10.153c2.424 0 3.571-1.084 3.571-3.12 0-2.046-1.305-2.78-3.69-2.78h-2.03v5.9h2.15ZM25.243.743h6.7c4.291 0 7.751 1.54 7.751 6.29 0 4.597-3.499 6.63-7.631 6.63h-2.41v6.635h-4.409V.744h-.001Zm22.18 15.995c3.307 0 5.542-1.626 5.542-6.302s-2.235-6.133-5.543-6.133h-.836v12.435h.836ZM42.176.743h5.514c5.955 0 9.792 2.97 9.792 9.692 0 6.721-3.837 9.863-9.546 9.863h-5.76V.743ZM60.28.744h12.306v3.708h-7.898v4.534h6.748v3.708h-6.748V20.3h-4.409z"/></g></svg>