<svg width="101" height="35" xmlns="http://www.w3.org/2000/svg"><g fill="#FFF" fill-rule="evenodd"><path d="M38.817 16.685a8.243 8.243 0 0 1-1.157-.513 3.442 3.442 0 0 1-.872-.667 2.736 2.736 0 0 1-.56-.929 3.779 3.779 0 0 1-.192-1.297 3.753 3.753 0 0 1 .333-1.624 3.24 3.24 0 0 1 .94-1.18c.427-.331.921-.577 1.451-.722a6.96 6.96 0 0 1 1.916-.244 9.514 9.514 0 0 1 1.813.159c.601.12 1.194.28 1.774.475a6.201 6.201 0 0 1-.607 2.06l-.579-.216a4.54 4.54 0 0 0-.627-.18 7.425 7.425 0 0 0-.748-.118 8.93 8.93 0 0 0-.95-.044c-.219 0-.438.018-.654.054-.21.032-.412.1-.597.198a1.174 1.174 0 0 0-.437.423c-.122.226-.18.477-.167.73-.008.21.038.416.133.604.088.162.21.303.36.415.157.114.328.208.51.28.19.077.378.158.568.224l1.139.415c.48.181.916.367 1.309.558.375.18.714.421 1 .713.278.3.49.65.624 1.03.167.482.247.988.235 1.496a3.943 3.943 0 0 1-.352 1.676c-.23.5-.577.944-1.014 1.298a4.89 4.89 0 0 1-1.64.848 7.53 7.53 0 0 1-2.25.298c-.417 0-.79-.011-1.119-.037a8.874 8.874 0 0 1-1.82-.323 11.741 11.741 0 0 1-.911-.307c.041-.368.111-.732.208-1.09.102-.38.222-.761.36-1.145.487.19.99.344 1.501.46.493.106.996.16 1.5.158.798 0 1.424-.14 1.878-.423.455-.282.683-.711.684-1.288a1.48 1.48 0 0 0-.167-.722 1.625 1.625 0 0 0-.417-.487 2.6 2.6 0 0 0-.578-.333c-.216-.09-.438-.177-.667-.261l-1.154-.422ZM46.766 9.728h7.74a5.548 5.548 0 0 1 0 2.234h-4.964v2.812h3.947c.073.37.111.744.113 1.12 0 .38-.038.76-.113 1.134h-3.947v3.425h5.104a5.583 5.583 0 0 1 0 2.236h-7.88V9.728ZM65.85 20.238a6.938 6.938 0 0 1 .645 2.109 9.462 9.462 0 0 1-1.78.45c-.562.074-1.13.11-1.697.108a7.423 7.423 0 0 1-2.835-.496 5.603 5.603 0 0 1-2.039-1.388 5.83 5.83 0 0 1-1.242-2.117 8.225 8.225 0 0 1-.419-2.669 8.007 8.007 0 0 1 .45-2.679 6.166 6.166 0 0 1 1.263-2.136 5.68 5.68 0 0 1 2.03-1.405c.865-.35 1.8-.522 2.74-.506.562-.003 1.123.033 1.68.108.57.089 1.126.24 1.658.453-.025.36-.101.714-.226 1.054-.127.344-.267.69-.419 1.038a8.76 8.76 0 0 0-1.175-.308 7.085 7.085 0 0 0-1.214-.09c-1.214 0-2.147.375-2.798 1.126-.652.752-.977 1.867-.977 3.345 0 2.932 1.309 4.398 3.927 4.4.412.003.825-.027 1.232-.091a8.453 8.453 0 0 0 1.195-.306ZM68.487 9.728c.232-.036.466-.06.7-.073a14.446 14.446 0 0 1 1.37 0c.23.017.46.036.701.073v6.723c-.005.629.024 1.258.085 1.884.036.448.152.886.342 1.298.148.32.4.585.72.757.374.177.788.26 1.204.244.414.017.826-.067 1.196-.244a1.67 1.67 0 0 0 .712-.757c.186-.412.3-.85.333-1.298.064-.626.092-1.255.087-1.884V9.728c.252-.037.5-.06.72-.073.22-.013.449-.018.667-.018.219 0 .459 0 .692.018.239.013.477.037.712.073v7.289c.008.805-.068 1.61-.226 2.402a4.564 4.564 0 0 1-.816 1.865c-.403.525-.946.94-1.574 1.2-.657.281-1.49.422-2.5.422-1.011 0-1.845-.14-2.502-.423a3.818 3.818 0 0 1-1.576-1.2 4.587 4.587 0 0 1-.817-1.864c-.158-.794-.234-1.6-.227-2.407l-.003-7.284ZM81.423 9.728c.556-.06 1.078-.113 1.566-.159a19.318 19.318 0 0 1 1.622-.063c.69 0 1.38.06 2.058.18a5.765 5.765 0 0 1 1.834.634c.541.304.995.732 1.319 1.244.333.523.5 1.187.5 1.992.007.43-.057.857-.19 1.268a3.782 3.782 0 0 1-.484.965c-.181.26-.395.498-.635.711-.2.177-.416.336-.645.475l-.322.198 3.32 5.48c-.254.024-.519.049-.797.073-.279.023-.564.036-.854.036-.476 0-.952-.036-1.422-.11l-3.569-6.003.456-.216c.176-.084.392-.191.645-.316.263-.14.51-.309.734-.501a2.71 2.71 0 0 0 .597-.721c.168-.31.25-.655.236-1.003 0-.758-.228-1.314-.683-1.669a2.791 2.791 0 0 0-1.764-.53 4.845 4.845 0 0 0-.76.053V22.69c-.226.024-.454.045-.681.062-.227.017-.45.029-.667.029-.217 0-.444 0-.684-.02-.24-.019-.487-.036-.74-.07l.01-12.962ZM92.881 9.728h7.74a5.548 5.548 0 0 1 0 2.234h-4.97v2.812h3.945a5.613 5.613 0 0 1 0 2.253h-3.945v3.426h5.102c.077.362.115.73.114 1.1.002.381-.036.762-.114 1.136h-7.872V9.728ZM37.005 29.35a3.81 3.81 0 0 1-.529-.234 1.544 1.544 0 0 1-.399-.306 1.254 1.254 0 0 1-.256-.424 1.737 1.737 0 0 1-.09-.593 1.72 1.72 0 0 1 .151-.743 1.47 1.47 0 0 1 .429-.539c.197-.152.423-.264.667-.331.285-.077.58-.114.875-.111.28-.002.56.023.834.074.275.054.547.126.812.214a2.831 2.831 0 0 1-.278.94l-.266-.098a2.114 2.114 0 0 0-.285-.083 3.436 3.436 0 0 0-.777-.074c-.1 0-.2.008-.298.025a.822.822 0 0 0-.274.09.532.532 0 0 0-.2.194.638.638 0 0 0-.078.334.549.549 0 0 0 .225.466c.072.054.151.098.235.132.087.036.167.07.26.103l.52.19c.22.082.42.168.6.255.17.082.325.192.454.326.13.138.23.3.292.476.074.22.11.45.103.68.002.264-.055.525-.166.766-.105.23-.265.433-.465.594-.221.176-.476.307-.75.389-.333.098-.68.145-1.028.14-.192 0-.362 0-.512-.017a4.402 4.402 0 0 1-.43-.054 4.506 4.506 0 0 1-.819-.236c.019-.168.05-.334.095-.497.047-.175.102-.349.167-.525.222.088.451.159.685.211.228.045.461.065.694.06.3.016.598-.051.859-.193a.646.646 0 0 0 .312-.59.676.676 0 0 0-.074-.33.766.766 0 0 0-.19-.223 1.178 1.178 0 0 0-.265-.158c-.098-.041-.2-.08-.304-.119l-.536-.18ZM41.56 29.35a3.831 3.831 0 0 1-.522-.234 1.574 1.574 0 0 1-.398-.306 1.227 1.227 0 0 1-.256-.424 1.696 1.696 0 0 1-.091-.593 1.72 1.72 0 0 1 .151-.743c.098-.209.245-.393.43-.539.197-.152.424-.265.668-.331.285-.077.58-.114.877-.111.28-.002.559.023.833.074.275.054.546.126.81.214-.036.326-.13.644-.276.94l-.265-.098a2.14 2.14 0 0 0-.287-.083 3.4 3.4 0 0 0-.342-.054 4.406 4.406 0 0 0-.435-.02c-.1 0-.2.008-.298.025a.834.834 0 0 0-.274.09.545.545 0 0 0-.2.194.638.638 0 0 0-.077.334.577.577 0 0 0 .06.276c.04.074.097.14.167.19.071.054.15.098.234.132.086.036.166.07.26.103l.522.19c.218.082.418.168.598.255.17.082.325.193.455.326.13.139.228.3.29.476.076.22.112.45.106.68.001.264-.056.525-.167.766a1.655 1.655 0 0 1-.464.594 2.255 2.255 0 0 1-.75.389 3.44 3.44 0 0 1-1.029.14c-.19 0-.36 0-.512-.017a4.304 4.304 0 0 1-.428-.054 4.374 4.374 0 0 1-.82-.236c.02-.167.051-.334.094-.497.047-.175.102-.349.167-.525.222.088.451.158.685.211.225.047.455.07.686.07.3.016.598-.051.858-.194a.648.648 0 0 0 .314-.589.658.658 0 0 0-.265-.553 1.178 1.178 0 0 0-.265-.158 6.578 6.578 0 0 0-.304-.12l-.54-.19ZM45.195 26.169a4 4 0 0 1 .615-.05c.213 0 .424.017.634.05v4.888h2.167c.018.089.03.178.036.268v.502c-.006.09-.018.18-.036.27h-3.416v-5.928ZM51.376 26.169h3.54a2.492 2.492 0 0 1 0 1.022h-2.27v1.285h1.805a2.634 2.634 0 0 1 0 1.031h-1.804v1.566h2.334a2.513 2.513 0 0 1 0 1.024h-3.605v-5.928ZM55.986 26.169c.169-.033.34-.05.512-.05.18 0 .36.017.537.05l2.413 3.776v-3.776c.198-.033.398-.05.599-.05.174-.001.349.016.52.05v5.926c-.165.03-.332.047-.5.05a3.246 3.246 0 0 1-.529-.05l-2.43-3.768v3.768a3.165 3.165 0 0 1-1.119 0l-.003-5.926ZM65.903 30.975c.074.153.136.312.185.475.05.16.086.325.11.491a4.326 4.326 0 0 1-.812.206c-.258.034-.517.05-.777.05a3.418 3.418 0 0 1-1.293-.227 2.564 2.564 0 0 1-1.5-1.602 3.78 3.78 0 0 1-.19-1.22c-.004-.416.063-.83.198-1.225.123-.358.32-.69.577-.976.255-.278.573-.498.929-.643.396-.16.823-.239 1.254-.232.256 0 .513.016.767.05.26.04.516.11.76.207a1.721 1.721 0 0 1-.105.475 9.406 9.406 0 0 1-.19.476 3.854 3.854 0 0 0-.539-.14 3.155 3.155 0 0 0-.555-.041c-.556 0-.982.172-1.279.515-.297.343-.446.853-.447 1.529 0 1.34.599 2.01 1.796 2.01a3.297 3.297 0 0 0 1.11-.178ZM67.203 26.169c.255-.029.5-.05.716-.071.215-.021.47-.029.742-.029.316 0 .63.028.942.082.293.051.575.15.833.294.248.139.455.334.602.568.164.278.243.593.23.911.004.197-.025.394-.086.582a1.79 1.79 0 0 1-.512.767c-.09.081-.19.154-.295.217l-.147.092 1.517 2.505-.363.033a4.215 4.215 0 0 1-1.04-.033l-1.625-2.752.209-.1c.081-.038.18-.087.295-.15.12-.062.231-.138.333-.226.11-.094.202-.205.272-.33a1.05 1.05 0 0 0-.198-1.22 1.282 1.282 0 0 0-.807-.242c-.116 0-.232.007-.347.024v5.004c-.105.01-.209.02-.314.028a4.027 4.027 0 0 1-.303.013c-.099 0-.202 0-.312-.01-.11-.009-.223-.015-.333-.031l-.009-5.926ZM73.693 29.976l-1.944-3.802c.24-.034.484-.05.728-.051.224 0 .447.017.667.05l1.232 2.694 1.214-2.693a4.275 4.275 0 0 1 1.326 0l-1.943 3.802v2.128a3.96 3.96 0 0 1-.333.034h-.62c-.107 0-.215-.018-.334-.034l.007-2.128ZM77.605 26.143c.266-.022.535-.04.807-.053.271-.015.547-.021.825-.021.295.001.59.029.879.082.288.052.562.157.807.31.248.16.45.378.587.633.163.327.24.686.225 1.048a2.11 2.11 0 0 1-.225 1.042c-.137.253-.337.471-.582.634a2.168 2.168 0 0 1-.794.317 4.621 4.621 0 0 1-.864.082h-.211c-.067 0-.13 0-.187-.01v1.9a3.306 3.306 0 0 1-.322.032c-.103 0-.205.01-.303.01-.099 0-.194 0-.304-.01-.11-.01-.222-.016-.333-.031l-.005-5.965Zm1.267 3.05c.064.012.13.017.195.018h.222c.143 0 .286-.018.425-.054.134-.034.26-.095.368-.177a.873.873 0 0 0 .255-.327c.068-.157.1-.327.096-.497a1.254 1.254 0 0 0-.096-.517.9.9 0 0 0-.623-.518 1.681 1.681 0 0 0-.425-.054h-.179l-.238.02v2.107ZM83.877 27.19h-1.552a2.491 2.491 0 0 1 0-1.021h4.38a2.495 2.495 0 0 1 0 1.022h-1.552v4.912c-.105.01-.208.02-.313.028a4.027 4.027 0 0 1-.304.013c-.098 0-.203 0-.317-.01-.113-.009-.227-.015-.342-.031V27.19ZM87.58 26.169a4.133 4.133 0 0 1 1.276 0v5.926a4.165 4.165 0 0 1-1.275 0v-5.926ZM92.613 32.195c-.418.01-.832-.07-1.214-.232a2.243 2.243 0 0 1-.834-.633 2.708 2.708 0 0 1-.49-.965 4.382 4.382 0 0 1-.167-1.216 4.48 4.48 0 0 1 .167-1.225c.095-.352.262-.684.49-.976a2.22 2.22 0 0 1 .834-.643 3.3 3.3 0 0 1 2.428 0c.329.147.615.368.834.643.228.292.395.624.49.976.112.4.168.812.167 1.225.001.41-.055.82-.167 1.216a2.708 2.708 0 0 1-.49.965c-.221.271-.507.488-.834.633a2.931 2.931 0 0 1-1.214.232Zm0-1.006c.897 0 1.345-.682 1.344-2.044 0-.682-.111-1.193-.334-1.534-.209-.337-.6-.534-1.01-.51-.907 0-1.361.68-1.362 2.044-.001 1.362.453 2.044 1.362 2.044ZM96.37 26.169c.168-.033.34-.05.512-.05.18 0 .36.017.537.05l2.412 3.776v-3.776c.198-.033.398-.05.599-.05.175-.001.349.016.52.05v5.926c-.165.03-.332.047-.5.05a3.246 3.246 0 0 1-.529-.05l-2.43-3.768v3.768a3.165 3.165 0 0 1-1.119 0l-.002-5.926Z" fill-rule="nonzero"/><path d="M15.25.005c3.141 0 5.838 1.064 8.09 3.192 2.254 2.128 3.38 4.674 3.38 7.64v4.643h.819c.683 0 1.263.225 1.74.677.479.451.719 1 .718 1.644v13.927a2.18 2.18 0 0 1-.717 1.644c-.478.451-1.058.677-1.74.677H2.96c-.682 0-1.263-.226-1.74-.677-.479-.451-.718-1-.718-1.644V17.8c0-.645.24-1.193.717-1.644.478-.452 1.059-.677 1.741-.677h.82v-4.643c0-2.966 1.125-5.512 3.379-7.64C9.412 1.069 12.11.005 15.25.005Zm4.792 20.592c-.568-.426-1.402-.34-1.859.194l-4.156 4.894-1.642-2.317a1.313 1.313 0 0 0-.838-.53 1.392 1.392 0 0 0-.995.184c-.608.381-.77 1.153-.367 1.726l2.644 3.734c.232.329.62.534 1.044.553h.056a1.375 1.375 0 0 0 1.03-.466l5.289-6.223a1.198 1.198 0 0 0-.206-1.75ZM15.25 4.648c-1.809 0-3.353.604-4.634 1.813-1.28 1.209-1.92 2.668-1.92 4.376v4.643h13.108v-4.643c0-1.708-.64-3.167-1.92-4.376-1.28-1.209-2.824-1.813-4.634-1.813Z"/></g></svg>